<svg width="47" height="46" viewBox="0 0 47 46" fill="none" xmlns="http://www.w3.org/2000/svg">
<g clip-path="url(#clip0_3295_18)">
<path d="M12.1421 4.58933C16.6133 4.26447 22.1389 1.66075 24.6291 0.213274C24.8522 0.0836168 25.124 0.0836051 25.3468 0.213712C27.8256 1.66127 33.2306 4.2645 37.7015 4.58933C41.5481 4.8688 44.0355 4.97676 45.2222 5.00676C45.566 5.01545 45.8562 5.26126 45.8984 5.6026C47.2704 16.6819 44.9882 39.2918 25.2058 45.9278C25.0666 45.9745 24.9095 45.9745 24.7703 45.9278C4.98694 39.2919 2.57776 16.682 3.9452 5.60263C3.98733 5.26127 4.27751 5.01545 4.62135 5.00676C5.80806 4.97676 8.29545 4.8688 12.1421 4.58933Z" fill="url(#paint0_linear_3295_18)" stroke="url(#paint1_linear_3295_18)" stroke-width="0.23"/>
<path d="M13.3688 6.47529C17.3471 6.18523 22.2579 3.87238 24.5052 2.56795C24.729 2.43804 25.003 2.43802 25.2265 2.56843C27.4626 3.87294 32.2666 6.18527 36.2444 6.47529C39.6206 6.72145 41.8269 6.81945 42.9126 6.84856C43.2565 6.85779 43.5467 7.10513 43.5883 7.44669C44.7996 17.415 42.7316 37.6376 25.0843 43.5955C24.9448 43.6426 24.7871 43.6426 24.6476 43.5955C6.99931 37.6376 4.81817 17.4151 6.0251 7.44672C6.06646 7.10514 6.35669 6.85779 6.70064 6.84856C7.78637 6.81945 9.99262 6.72145 13.3688 6.47529Z" fill="white"/>
<path d="M13.3688 6.47529C17.3471 6.18523 22.2579 3.87238 24.5052 2.56795C24.729 2.43804 25.003 2.43802 25.2265 2.56843C27.4626 3.87294 32.2666 6.18527 36.2444 6.47529C39.6206 6.72145 41.8269 6.81945 42.9126 6.84856C43.2565 6.85779 43.5467 7.10513 43.5883 7.44669C44.7996 17.415 42.7316 37.6376 25.0843 43.5955C24.9448 43.6426 24.7871 43.6426 24.6476 43.5955C6.99931 37.6376 4.81817 17.4151 6.0251 7.44672C6.06646 7.10514 6.35669 6.85779 6.70064 6.84856C7.78637 6.81945 9.99262 6.72145 13.3688 6.47529Z" stroke="url(#paint2_linear_3295_18)" stroke-width="0.23"/>
<path d="M13.5483 6.63494C17.5039 6.34791 22.3866 4.0594 24.6217 2.76833C24.8449 2.63942 25.1176 2.6394 25.3405 2.76881C27.5644 4.05996 32.341 6.34794 36.2961 6.63494C39.6504 6.87834 41.8434 6.97538 42.9241 7.00429C43.2679 7.01349 43.558 7.26071 43.5996 7.60208C44.8027 17.4696 42.7437 37.4769 25.1986 43.3724C25.0596 43.419 24.9028 43.4191 24.7638 43.3724C7.21777 37.4769 5.04628 17.4696 6.24492 7.60211C6.28639 7.26072 6.57652 7.01349 6.92029 7.00429C8.00099 6.97538 10.194 6.87834 13.5483 6.63494Z" fill="url(#paint3_linear_3295_18)"/>
<g filter="url(#filter0_d_3295_18)">
<path d="M9.82878 13.4923V10.2777H8.71118V9.45168H11.9741V10.2777H10.8565V13.4923H9.82878Z" fill="white"/>
<path d="M13.6393 9.12686C13.0271 9.12686 12.6087 8.75164 12.6087 8.17481V8.14961H13.1816V8.15801C13.1816 8.40442 13.3641 8.58643 13.6393 8.58643C13.9145 8.58643 14.0998 8.40442 14.0998 8.15801V8.14961H14.6726V8.17481C14.6726 8.75164 14.2542 9.12686 13.6393 9.12686ZM11.6456 13.4923L13.0103 9.45168H14.2711L15.6358 13.4923H14.5547L14.302 12.6047H12.9794L12.7267 13.4923H11.6456ZM13.6309 10.3309L13.1928 11.8654H14.0886L13.6505 10.3309H13.6309ZM13.6421 14.8C13.3557 14.8 13.1338 14.576 13.1338 14.31C13.1338 14.0412 13.3557 13.8199 13.6421 13.8199C13.9285 13.8199 14.1475 14.0412 14.1475 14.31C14.1475 14.576 13.9285 14.8 13.6421 14.8Z" fill="white"/>
<path d="M16.0261 13.4923V9.45168H16.8994L18.5196 11.7842H18.5393V9.45168H19.567V13.4923H18.7022L17.0735 11.1346H17.0539V13.4923H16.0261Z" fill="white"/>
<path d="M22.0718 13.5651C20.8222 13.5651 20.0697 12.7951 20.0697 11.465V11.4622C20.0697 10.1517 20.825 9.37888 22.0465 9.37888C23.0406 9.37888 23.7566 9.96131 23.8633 10.7454L23.869 10.779H22.8496L22.8412 10.751C22.7345 10.4233 22.4453 10.2301 22.0493 10.2301C21.4653 10.2301 21.1199 10.667 21.1199 11.451V11.4538C21.1199 12.2547 21.5018 12.7139 22.0943 12.7139C22.5604 12.7139 22.8805 12.4619 22.9142 12.0558L22.917 12.0054H22.1055V11.2774H23.9111V11.7842C23.9111 12.8903 23.2259 13.5651 22.0718 13.5651Z" fill="white"/>
<path d="M26.4804 13.4923V10.2777H25.3628V9.45168H28.6258V10.2777H27.5082V13.4923H26.4804Z" fill="white"/>
<path d="M29.061 13.4923V9.45168H30.0916V11.0394H31.7062V9.45168H32.7339V13.4923H31.7062V11.8654H30.0916V13.4923H29.061Z" fill="white"/>
<path d="M33.6774 9.11566L34.3514 8.13H35.1236L35.8031 9.11566H35.1292L34.7332 8.55843L34.3542 9.11566H33.6774ZM33.3517 13.4923V9.45168H36.1288V10.2777H34.3822V11.0758H36.0249V11.8486H34.3822V12.6663H36.1288V13.4923H33.3517Z" fill="white"/>
<path d="M36.7101 13.4923V9.45168H37.9007L38.9172 12.0922H38.9341L39.9506 9.45168H41.1412V13.4923H40.2342V10.9666H40.2117L39.2205 13.4923H38.6308L37.6396 10.9666H37.6171V13.4923H36.7101Z" fill="white"/>
</g>
<g filter="url(#filter1_d_3295_18)">
<path d="M12.0273 16.95V27.4374H9.3062V20.3513H7.25122V18.679L7.54884 18.5939C8.21021 18.4239 8.74403 18.2207 9.15031 17.9845C9.56603 17.7389 9.96285 17.4271 10.3408 17.0492L10.44 16.95H12.0273Z" fill="white"/>
</g>
<g filter="url(#filter2_d_3295_18)">
<path d="M15.2192 27.4374V19.4201H17.1369L20.0946 23.873V19.4201H22.1531V27.4374H20.2138L17.2777 23.2121V27.4374H15.2192Z" fill="white"/>
<path d="M27.091 18.7484C26.6576 18.7484 26.3037 18.687 26.0292 18.5642C25.762 18.4415 25.5561 18.2934 25.4117 18.12C25.2672 17.9395 25.1661 17.7625 25.1083 17.5892C25.0505 17.4086 25.0144 17.2569 25 17.1341C24.9927 17.0113 24.9891 16.95 24.9891 16.95H26.2784C26.2784 16.95 26.282 16.9861 26.2892 17.0583C26.3037 17.1233 26.3362 17.2027 26.3867 17.2966C26.4373 17.3905 26.5167 17.4736 26.6251 17.5458C26.7334 17.6108 26.8887 17.6433 27.091 17.6433C27.2932 17.6433 27.4485 17.6108 27.5568 17.5458C27.6724 17.4736 27.7518 17.3905 27.7952 17.2966C27.8457 17.2027 27.8746 17.1233 27.8818 17.0583C27.8963 16.9861 27.9035 16.95 27.9035 16.95H29.1928C29.1928 16.95 29.1856 17.0113 29.1711 17.1341C29.1639 17.2569 29.1314 17.4086 29.0736 17.5892C29.0158 17.7625 28.9147 17.9395 28.7703 18.12C28.6258 18.2934 28.4163 18.4415 28.1419 18.5642C27.8746 18.687 27.5243 18.7484 27.091 18.7484ZM23.0173 27.4374L25.6825 19.4201H28.4886L31.1538 27.4374H28.9869L28.5644 26.094H25.6067L25.1841 27.4374H23.0173ZM26.1592 24.3172H28.0119L27.091 21.3595L26.1592 24.3172Z" fill="white"/>
<path d="M32.0207 27.4374V19.4201H34.8376L36.3218 23.0821L37.8928 19.4201H40.6013V27.4374H38.5428V22.6596L37.2644 25.6823H35.3576L34.0792 22.6379V27.4374H32.0207Z" fill="white"/>
</g>
<path d="M5.53895 43.1394L4.04182 34.7893C3.89528 33.972 4.43628 33.1945 5.25341 33.0698C9.18355 32.4701 16.593 31.6181 24.1292 31.6181C31.7566 31.6181 40.0667 32.4908 44.5193 33.0917C45.3659 33.2059 45.9342 34.0131 45.7737 34.8554C45.4043 36.7951 44.8516 39.8079 44.2718 43.2558C44.135 44.0693 43.3687 44.6237 42.551 44.5058C26.2486 42.1564 13.3142 43.2683 7.39448 44.3838C6.53582 44.5456 5.69196 43.9928 5.53895 43.1394Z" fill="url(#paint4_linear_3295_18)" stroke="url(#paint5_linear_3295_18)" stroke-width="0.2162"/>
<g filter="url(#filter3_d_3295_18)">
<mask id="path-8-outside-1_3295_18" maskUnits="userSpaceOnUse" x="8.92627" y="34.1208" width="32" height="7" fill="black">
<rect fill="white" x="8.92627" y="34.1208" width="32" height="7"/>
<path d="M9.59376 40.1208V35.9074H11.553C12.3881 35.9074 12.8933 36.3104 12.8933 36.9673V36.9732C12.8933 37.4491 12.5283 37.8287 12.0494 37.89V37.9105C12.6246 37.9397 13.0772 38.3572 13.0772 38.9091V38.9149C13.0772 39.6478 12.5078 40.1208 11.6056 40.1208H9.59376ZM11.2698 36.6637H10.6654V37.6389H11.191C11.6202 37.6389 11.8479 37.452 11.8479 37.1367V37.1308C11.8479 36.8389 11.6319 36.6637 11.2698 36.6637ZM11.2698 38.3134H10.6654V39.3646H11.3019C11.7399 39.3646 11.9881 39.1806 11.9881 38.839V38.8332C11.9881 38.4974 11.7399 38.3134 11.2698 38.3134ZM15.1124 35.557V35.5483C15.2409 35.4373 15.3548 35.3263 15.3548 35.1862C15.3548 35.0343 15.2146 34.9497 14.9664 34.9497C14.8847 34.9497 14.7941 34.9613 14.7211 34.973V34.4825C14.8233 34.4504 14.981 34.4182 15.1387 34.4182C15.6088 34.4182 15.9358 34.6635 15.9358 35.0285C15.9358 35.2563 15.8044 35.4256 15.6205 35.557H15.1124ZM13.2962 40.1208L14.7153 35.9074H16.0263L17.4454 40.1208H16.3213L16.0585 39.1952H14.6832L14.4204 40.1208H13.2962ZM15.3606 36.8243L14.9051 38.4244H15.8366L15.381 36.8243H15.3606ZM19.5624 40.1968C18.2834 40.1968 17.4834 39.3587 17.4834 38.0156V38.0097C17.4834 36.6695 18.2893 35.8315 19.5624 35.8315C20.8442 35.8315 21.6443 36.6695 21.6443 38.0097V38.0156C21.6443 39.3587 20.8471 40.1968 19.5624 40.1968ZM19.5624 39.3091C20.1756 39.3091 20.5551 38.8069 20.5551 38.0156V38.0097C20.5551 37.2126 20.1668 36.7191 19.5624 36.7191C18.9638 36.7191 18.5754 37.2097 18.5754 38.0097V38.0156C18.5754 38.8156 18.9609 39.3091 19.5624 39.3091ZM23.3291 40.1208V35.9074H24.4007V37.563H26.0796V35.9074H27.1483V40.1208H26.0796V38.4244H24.4007V40.1208H23.3291ZM29.4142 35.557L28.6842 34.5292H29.5485L30.077 35.557H29.4142ZM27.5571 40.1208L28.9762 35.9074H30.2872L31.7063 40.1208H30.5822L30.3194 39.1952H28.9441L28.6813 40.1208H27.5571ZM29.6215 36.8243L29.166 38.4244H30.0975L29.6419 36.8243H29.6215ZM32.1122 40.1208V35.9074H33.0203L34.7051 38.3397H34.7255V35.9074H35.7942V40.1208H34.8949L33.2013 37.6623H33.1809V40.1208H32.1122ZM36.4337 40.1208V35.9074H37.5053V37.563H39.1842V35.9074H40.2529V40.1208H39.1842V38.4244H37.5053V40.1208H36.4337Z"/>
</mask>
<path d="M9.59376 40.1208V35.9074H11.553C12.3881 35.9074 12.8933 36.3104 12.8933 36.9673V36.9732C12.8933 37.4491 12.5283 37.8287 12.0494 37.89V37.9105C12.6246 37.9397 13.0772 38.3572 13.0772 38.9091V38.9149C13.0772 39.6478 12.5078 40.1208 11.6056 40.1208H9.59376ZM11.2698 36.6637H10.6654V37.6389H11.191C11.6202 37.6389 11.8479 37.452 11.8479 37.1367V37.1308C11.8479 36.8389 11.6319 36.6637 11.2698 36.6637ZM11.2698 38.3134H10.6654V39.3646H11.3019C11.7399 39.3646 11.9881 39.1806 11.9881 38.839V38.8332C11.9881 38.4974 11.7399 38.3134 11.2698 38.3134ZM15.1124 35.557V35.5483C15.2409 35.4373 15.3548 35.3263 15.3548 35.1862C15.3548 35.0343 15.2146 34.9497 14.9664 34.9497C14.8847 34.9497 14.7941 34.9613 14.7211 34.973V34.4825C14.8233 34.4504 14.981 34.4182 15.1387 34.4182C15.6088 34.4182 15.9358 34.6635 15.9358 35.0285C15.9358 35.2563 15.8044 35.4256 15.6205 35.557H15.1124ZM13.2962 40.1208L14.7153 35.9074H16.0263L17.4454 40.1208H16.3213L16.0585 39.1952H14.6832L14.4204 40.1208H13.2962ZM15.3606 36.8243L14.9051 38.4244H15.8366L15.381 36.8243H15.3606ZM19.5624 40.1968C18.2834 40.1968 17.4834 39.3587 17.4834 38.0156V38.0097C17.4834 36.6695 18.2893 35.8315 19.5624 35.8315C20.8442 35.8315 21.6443 36.6695 21.6443 38.0097V38.0156C21.6443 39.3587 20.8471 40.1968 19.5624 40.1968ZM19.5624 39.3091C20.1756 39.3091 20.5551 38.8069 20.5551 38.0156V38.0097C20.5551 37.2126 20.1668 36.7191 19.5624 36.7191C18.9638 36.7191 18.5754 37.2097 18.5754 38.0097V38.0156C18.5754 38.8156 18.9609 39.3091 19.5624 39.3091ZM23.3291 40.1208V35.9074H24.4007V37.563H26.0796V35.9074H27.1483V40.1208H26.0796V38.4244H24.4007V40.1208H23.3291ZM29.4142 35.557L28.6842 34.5292H29.5485L30.077 35.557H29.4142ZM27.5571 40.1208L28.9762 35.9074H30.2872L31.7063 40.1208H30.5822L30.3194 39.1952H28.9441L28.6813 40.1208H27.5571ZM29.6215 36.8243L29.166 38.4244H30.0975L29.6419 36.8243H29.6215ZM32.1122 40.1208V35.9074H33.0203L34.7051 38.3397H34.7255V35.9074H35.7942V40.1208H34.8949L33.2013 37.6623H33.1809V40.1208H32.1122ZM36.4337 40.1208V35.9074H37.5053V37.563H39.1842V35.9074H40.2529V40.1208H39.1842V38.4244H37.5053V40.1208H36.4337Z" fill="white"/>
<path d="M9.59376 40.1208H9.40976C9.40976 40.2225 9.49214 40.3048 9.59376 40.3048V40.1208ZM9.59376 35.9074V35.7234C9.49214 35.7234 9.40976 35.8058 9.40976 35.9074H9.59376ZM12.0494 37.89L12.026 37.7075C11.9342 37.7193 11.8654 37.7974 11.8654 37.89H12.0494ZM12.0494 37.9105H11.8654C11.8654 38.0085 11.9422 38.0893 12.0401 38.0942L12.0494 37.9105ZM10.6654 36.6637V36.4797C10.5638 36.4797 10.4814 36.562 10.4814 36.6637H10.6654ZM10.6654 37.6389H10.4814C10.4814 37.7405 10.5638 37.8229 10.6654 37.8229V37.6389ZM10.6654 38.3134V38.1294C10.5638 38.1294 10.4814 38.2118 10.4814 38.3134H10.6654ZM10.6654 39.3646H10.4814C10.4814 39.4662 10.5638 39.5486 10.6654 39.5486V39.3646ZM9.77776 40.1208V35.9074H9.40976V40.1208H9.77776ZM9.59376 36.0914H11.553V35.7234H9.59376V36.0914ZM11.553 36.0914C11.9434 36.0914 12.2336 36.1858 12.422 36.3352C12.6053 36.4805 12.7093 36.6907 12.7093 36.9673H13.0773C13.0773 36.587 12.9286 36.2672 12.6506 36.0468C12.3777 35.8305 11.9977 35.7234 11.553 35.7234V36.0914ZM12.7093 36.9673V36.9732H13.0773V36.9673H12.7093ZM12.7093 36.9732C12.7093 37.3473 12.4225 37.6567 12.026 37.7075L12.0728 38.0725C12.634 38.0007 13.0773 37.5509 13.0773 36.9732H12.7093ZM11.8654 37.89V37.9105H12.2334V37.89H11.8654ZM12.0401 38.0942C12.5339 38.1193 12.8932 38.4709 12.8932 38.9091H13.2612C13.2612 38.2435 12.7154 37.76 12.0587 37.7267L12.0401 38.0942ZM12.8932 38.9091V38.9149H13.2612V38.9091H12.8932ZM12.8932 38.9149C12.8932 39.2296 12.773 39.4777 12.5629 39.6506C12.349 39.8266 12.0262 39.9368 11.6056 39.9368V40.3048C12.0872 40.3048 12.5003 40.1786 12.7966 39.9348C13.0967 39.688 13.2612 39.3331 13.2612 38.9149H12.8932ZM11.6056 39.9368H9.59376V40.3048H11.6056V39.9368ZM11.2698 36.4797H10.6654V36.8477H11.2698V36.4797ZM10.4814 36.6637V37.6389H10.8494V36.6637H10.4814ZM10.6654 37.8229H11.191V37.4549H10.6654V37.8229ZM11.191 37.8229C11.4288 37.8229 11.6389 37.7716 11.7935 37.6512C11.9548 37.5255 12.0319 37.343 12.0319 37.1367H11.6639C11.6639 37.2457 11.6272 37.3143 11.5673 37.3609C11.5007 37.4128 11.3824 37.4549 11.191 37.4549V37.8229ZM12.0319 37.1367V37.1308H11.6639V37.1367H12.0319ZM12.0319 37.1308C12.0319 36.9354 11.9573 36.7636 11.8104 36.6447C11.6684 36.5298 11.478 36.4797 11.2698 36.4797V36.8477C11.4236 36.8477 11.5224 36.8851 11.5789 36.9308C11.6305 36.9725 11.6639 37.0343 11.6639 37.1308H12.0319ZM11.2698 38.1294H10.6654V38.4974H11.2698V38.1294ZM10.4814 38.3134V39.3646H10.8494V38.3134H10.4814ZM10.6654 39.5486H11.3019V39.1806H10.6654V39.5486ZM11.3019 39.5486C11.5428 39.5486 11.7597 39.4986 11.9205 39.3764C12.0892 39.2484 12.1721 39.0593 12.1721 38.839H11.8041C11.8041 38.9603 11.7629 39.0341 11.698 39.0834C11.6252 39.1386 11.499 39.1806 11.3019 39.1806V39.5486ZM12.1721 38.839V38.8332H11.8041V38.839H12.1721ZM12.1721 38.8332C12.1721 38.6142 12.0878 38.4255 11.9135 38.2986C11.7486 38.1785 11.5244 38.1294 11.2698 38.1294V38.4974C11.4853 38.4974 11.6203 38.5403 11.6969 38.5961C11.7643 38.6451 11.8041 38.7164 11.8041 38.8332H12.1721ZM15.1124 35.557H14.9284C14.9284 35.6586 15.0108 35.741 15.1124 35.741V35.557ZM15.1124 35.5483L14.9921 35.409C14.9517 35.4439 14.9284 35.4948 14.9284 35.5483H15.1124ZM14.7211 34.973H14.5371C14.5371 35.0269 14.5608 35.0781 14.6018 35.113C14.6428 35.148 14.697 35.1632 14.7502 35.1547L14.7211 34.973ZM14.7211 34.4825L14.666 34.3069C14.5893 34.331 14.5371 34.4021 14.5371 34.4825H14.7211ZM15.6205 35.557V35.741C15.6588 35.741 15.6962 35.729 15.7274 35.7067L15.6205 35.557ZM13.2962 40.1208L13.1218 40.0621C13.1029 40.1183 13.1122 40.1801 13.1468 40.2282C13.1814 40.2763 13.237 40.3048 13.2962 40.3048V40.1208ZM14.7153 35.9074V35.7234C14.6363 35.7234 14.5661 35.7738 14.5409 35.8487L14.7153 35.9074ZM16.0263 35.9074L16.2007 35.8487C16.1755 35.7738 16.1053 35.7234 16.0263 35.7234V35.9074ZM17.4454 40.1208V40.3048C17.5047 40.3048 17.5603 40.2763 17.5949 40.2282C17.6294 40.1801 17.6387 40.1183 17.6198 40.0621L17.4454 40.1208ZM16.3213 40.1208L16.1443 40.1711C16.1667 40.2502 16.239 40.3048 16.3213 40.3048V40.1208ZM16.0585 39.1952L16.2355 39.145C16.213 39.0658 16.1407 39.0112 16.0585 39.0112V39.1952ZM14.6832 39.1952V39.0112C14.6009 39.0112 14.5286 39.0658 14.5062 39.145L14.6832 39.1952ZM14.4204 40.1208V40.3048C14.5027 40.3048 14.5749 40.2502 14.5974 40.1711L14.4204 40.1208ZM15.3606 36.8243V36.6403C15.2784 36.6403 15.2061 36.6948 15.1836 36.7739L15.3606 36.8243ZM14.9051 38.4244L14.7281 38.374C14.7123 38.4295 14.7235 38.4892 14.7583 38.5352C14.793 38.5813 14.8474 38.6084 14.9051 38.6084V38.4244ZM15.8366 38.4244V38.6084C15.8943 38.6084 15.9486 38.5813 15.9834 38.5352C16.0182 38.4892 16.0293 38.4295 16.0135 38.374L15.8366 38.4244ZM15.381 36.8243L15.558 36.7739C15.5355 36.6948 15.4633 36.6403 15.381 36.6403V36.8243ZM15.2964 35.557V35.5483H14.9284V35.557H15.2964ZM15.2327 35.6875C15.2972 35.6318 15.3713 35.5652 15.4287 35.4889C15.4878 35.4104 15.5388 35.3095 15.5388 35.1862H15.1708C15.1708 35.203 15.1648 35.2276 15.1348 35.2675C15.1032 35.3094 15.0561 35.3537 14.9921 35.409L15.2327 35.6875ZM15.5388 35.1862C15.5388 35.0421 15.4668 34.9252 15.3492 34.8537C15.2424 34.7888 15.1068 34.7657 14.9664 34.7657V35.1337C15.0742 35.1337 15.1328 35.1528 15.1581 35.1682C15.1689 35.1748 15.1705 35.1787 15.1699 35.1776C15.1691 35.1762 15.1708 35.1775 15.1708 35.1862H15.5388ZM14.9664 34.7657C14.8698 34.7657 14.7678 34.7792 14.6921 34.7913L14.7502 35.1547C14.8205 35.1435 14.8995 35.1337 14.9664 35.1337V34.7657ZM14.9051 34.973V34.4825H14.5371V34.973H14.9051ZM14.7763 34.658C14.864 34.6304 15.003 34.6022 15.1387 34.6022V34.2342C14.9591 34.2342 14.7826 34.2703 14.666 34.3069L14.7763 34.658ZM15.1387 34.6022C15.3436 34.6022 15.5008 34.6558 15.6021 34.7329C15.6997 34.8072 15.7518 34.9069 15.7518 35.0285H16.1198C16.1198 34.7852 16.0085 34.5797 15.825 34.4401C15.6452 34.3033 15.4039 34.2342 15.1387 34.2342V34.6022ZM15.7518 35.0285C15.7518 35.1733 15.6722 35.294 15.5135 35.4073L15.7274 35.7067C15.9367 35.5573 16.1198 35.3392 16.1198 35.0285H15.7518ZM15.6205 35.373H15.1124V35.741H15.6205V35.373ZM13.4706 40.1796L14.8897 35.9661L14.5409 35.8487L13.1218 40.0621L13.4706 40.1796ZM14.7153 36.0914H16.0263V35.7234H14.7153V36.0914ZM15.852 35.9661L17.2711 40.1796L17.6198 40.0621L16.2007 35.8487L15.852 35.9661ZM17.4454 39.9368H16.3213V40.3048H17.4454V39.9368ZM16.4983 40.0706L16.2355 39.145L15.8815 39.2455L16.1443 40.1711L16.4983 40.0706ZM16.0585 39.0112H14.6832V39.3792H16.0585V39.0112ZM14.5062 39.145L14.2434 40.0706L14.5974 40.1711L14.8602 39.2455L14.5062 39.145ZM14.4204 39.9368H13.2962V40.3048H14.4204V39.9368ZM15.1836 36.7739L14.7281 38.374L15.0821 38.4748L15.5376 36.8746L15.1836 36.7739ZM14.9051 38.6084H15.8366V38.2404H14.9051V38.6084ZM16.0135 38.374L15.558 36.7739L15.2041 36.8746L15.6596 38.4748L16.0135 38.374ZM15.381 36.6403H15.3606V37.0083H15.381V36.6403ZM19.5624 40.0128C18.9643 40.0128 18.4959 39.8179 18.1764 39.4829C17.8561 39.1469 17.6674 38.6508 17.6674 38.0156H17.2994C17.2994 38.7235 17.5108 39.318 17.9101 39.7368C18.3104 40.1566 18.8815 40.3808 19.5624 40.3808V40.0128ZM17.6674 38.0156V38.0097H17.2994V38.0156H17.6674ZM17.6674 38.0097C17.6674 37.3764 17.8572 36.881 18.1784 36.5452C18.4988 36.2103 18.9674 36.0155 19.5624 36.0155V35.6475C18.8842 35.6475 18.3134 35.8717 17.9125 36.2908C17.5125 36.7091 17.2994 37.3028 17.2994 38.0097H17.6674ZM19.5624 36.0155C20.162 36.0155 20.6312 36.2104 20.951 36.5451C21.2717 36.8808 21.4603 37.376 21.4603 38.0097H21.8283C21.8283 37.3032 21.6168 36.7093 21.2171 36.2909C20.8163 35.8715 20.2446 35.6475 19.5624 35.6475V36.0155ZM21.4603 38.0097V38.0156H21.8283V38.0097H21.4603ZM21.4603 38.0156C21.4603 38.651 21.2722 39.147 20.952 39.4829C20.6326 39.8178 20.1636 40.0128 19.5624 40.0128V40.3808C20.246 40.3808 20.8178 40.1568 21.2183 39.7368C21.6177 39.3179 21.8283 38.7233 21.8283 38.0156H21.4603ZM19.5624 39.4931C19.9249 39.4931 20.2277 39.3419 20.4349 39.0708C20.638 38.805 20.7391 38.4382 20.7391 38.0156H20.3711C20.3711 38.3843 20.2825 38.6642 20.1425 38.8474C20.0066 39.0252 19.813 39.1251 19.5624 39.1251V39.4931ZM20.7391 38.0156V38.0097H20.3711V38.0156H20.7391ZM20.7391 38.0097C20.7391 37.5836 20.6355 37.2172 20.4309 36.9529C20.2225 36.6837 19.92 36.5351 19.5624 36.5351V36.9031C19.8092 36.9031 20.003 37.0013 20.1399 37.1782C20.2806 37.3599 20.3711 37.6388 20.3711 38.0097H20.7391ZM19.5624 36.5351C19.2075 36.5351 18.9064 36.6831 18.6988 36.952C18.495 37.2159 18.3914 37.5822 18.3914 38.0097H18.7594C18.7594 37.6372 18.8501 37.3582 18.9901 37.1769C19.1263 37.0004 19.3187 36.9031 19.5624 36.9031V36.5351ZM18.3914 38.0097V38.0156H18.7594V38.0097H18.3914ZM18.3914 38.0156C18.3914 38.4428 18.4941 38.8097 18.6974 39.0744C18.9046 39.3442 19.2058 39.4931 19.5624 39.4931V39.1251C19.3174 39.1251 19.1252 39.0273 18.9893 38.8503C18.8495 38.6683 18.7594 38.3884 18.7594 38.0156H18.3914ZM23.3291 40.1208H23.1451C23.1451 40.2225 23.2275 40.3048 23.3291 40.3048V40.1208ZM23.3291 35.9074V35.7234C23.2275 35.7234 23.1451 35.8058 23.1451 35.9074H23.3291ZM24.4007 35.9074H24.5847C24.5847 35.8058 24.5023 35.7234 24.4007 35.7234V35.9074ZM24.4007 37.563H24.2167C24.2167 37.6646 24.2991 37.747 24.4007 37.747V37.563ZM26.0796 37.563V37.747C26.1813 37.747 26.2636 37.6646 26.2636 37.563H26.0796ZM26.0796 35.9074V35.7234C25.978 35.7234 25.8956 35.8058 25.8956 35.9074H26.0796ZM27.1483 35.9074H27.3323C27.3323 35.8058 27.25 35.7234 27.1483 35.7234V35.9074ZM27.1483 40.1208V40.3048C27.25 40.3048 27.3323 40.2225 27.3323 40.1208H27.1483ZM26.0796 40.1208H25.8956C25.8956 40.2225 25.978 40.3048 26.0796 40.3048V40.1208ZM26.0796 38.4244H26.2636C26.2636 38.3228 26.1813 38.2404 26.0796 38.2404V38.4244ZM24.4007 38.4244V38.2404C24.2991 38.2404 24.2167 38.3228 24.2167 38.4244H24.4007ZM24.4007 40.1208V40.3048C24.5023 40.3048 24.5847 40.2225 24.5847 40.1208H24.4007ZM23.5131 40.1208V35.9074H23.1451V40.1208H23.5131ZM23.3291 36.0914H24.4007V35.7234H23.3291V36.0914ZM24.2167 35.9074V37.563H24.5847V35.9074H24.2167ZM24.4007 37.747H26.0796V37.379H24.4007V37.747ZM26.2636 37.563V35.9074H25.8956V37.563H26.2636ZM26.0796 36.0914H27.1483V35.7234H26.0796V36.0914ZM26.9643 35.9074V40.1208H27.3323V35.9074H26.9643ZM27.1483 39.9368H26.0796V40.3048H27.1483V39.9368ZM26.2636 40.1208V38.4244H25.8956V40.1208H26.2636ZM26.0796 38.2404H24.4007V38.6084H26.0796V38.2404ZM24.2167 38.4244V40.1208H24.5847V38.4244H24.2167ZM24.4007 39.9368H23.3291V40.3048H24.4007V39.9368ZM29.4142 35.557L29.2642 35.6636C29.2987 35.7121 29.3546 35.741 29.4142 35.741V35.557ZM28.6842 34.5292V34.3452C28.6154 34.3452 28.5523 34.3836 28.5207 34.4448C28.4891 34.5059 28.4943 34.5796 28.5342 34.6357L28.6842 34.5292ZM29.5485 34.5292L29.7121 34.4451C29.6806 34.3837 29.6175 34.3452 29.5485 34.3452V34.5292ZM30.077 35.557V35.741C30.1412 35.741 30.2007 35.7076 30.2341 35.6529C30.2675 35.5981 30.27 35.5299 30.2406 35.4729L30.077 35.557ZM27.5571 40.1208L27.3827 40.0621C27.3638 40.1183 27.3731 40.1801 27.4077 40.2282C27.4422 40.2763 27.4979 40.3048 27.5571 40.3048V40.1208ZM28.9762 35.9074V35.7234C28.8972 35.7234 28.827 35.7738 28.8018 35.8487L28.9762 35.9074ZM30.2872 35.9074L30.4616 35.8487C30.4364 35.7738 30.3662 35.7234 30.2872 35.7234V35.9074ZM31.7063 40.1208V40.3048C31.7656 40.3048 31.8212 40.2763 31.8558 40.2282C31.8903 40.1801 31.8996 40.1183 31.8807 40.0621L31.7063 40.1208ZM30.5822 40.1208L30.4052 40.1711C30.4276 40.2502 30.4999 40.3048 30.5822 40.3048V40.1208ZM30.3194 39.1952L30.4964 39.145C30.4739 39.0658 30.4016 39.0112 30.3194 39.0112V39.1952ZM28.9441 39.1952V39.0112C28.8618 39.0112 28.7895 39.0658 28.7671 39.145L28.9441 39.1952ZM28.6813 40.1208V40.3048C28.7636 40.3048 28.8358 40.2502 28.8583 40.1711L28.6813 40.1208ZM29.6215 36.8243V36.6403C29.5393 36.6403 29.467 36.6948 29.4445 36.7739L29.6215 36.8243ZM29.166 38.4244L28.989 38.374C28.9732 38.4295 28.9844 38.4892 29.0192 38.5352C29.0539 38.5813 29.1083 38.6084 29.166 38.6084V38.4244ZM30.0975 38.4244V38.6084C30.1552 38.6084 30.2095 38.5813 30.2443 38.5352C30.2791 38.4892 30.2902 38.4295 30.2744 38.374L30.0975 38.4244ZM29.6419 36.8243L29.8189 36.7739C29.7964 36.6948 29.7242 36.6403 29.6419 36.6403V36.8243ZM29.5642 35.4505L28.8342 34.4227L28.5342 34.6357L29.2642 35.6636L29.5642 35.4505ZM28.6842 34.7132H29.5485V34.3452H28.6842V34.7132ZM29.3849 34.6133L29.9134 35.6412L30.2406 35.4729L29.7121 34.4451L29.3849 34.6133ZM30.077 35.373H29.4142V35.741H30.077V35.373ZM27.7315 40.1796L29.1506 35.9661L28.8018 35.8487L27.3827 40.0621L27.7315 40.1796ZM28.9762 36.0914H30.2872V35.7234H28.9762V36.0914ZM30.1129 35.9661L31.532 40.1796L31.8807 40.0621L30.4616 35.8487L30.1129 35.9661ZM31.7063 39.9368H30.5822V40.3048H31.7063V39.9368ZM30.7592 40.0706L30.4964 39.145L30.1424 39.2455L30.4052 40.1711L30.7592 40.0706ZM30.3194 39.0112H28.9441V39.3792H30.3194V39.0112ZM28.7671 39.145L28.5043 40.0706L28.8583 40.1711L29.1211 39.2455L28.7671 39.145ZM28.6813 39.9368H27.5571V40.3048H28.6813V39.9368ZM29.4445 36.7739L28.989 38.374L29.343 38.4748L29.7985 36.8746L29.4445 36.7739ZM29.166 38.6084H30.0975V38.2404H29.166V38.6084ZM30.2744 38.374L29.8189 36.7739L29.465 36.8746L29.9205 38.4748L30.2744 38.374ZM29.6419 36.6403H29.6215V37.0083H29.6419V36.6403ZM32.1122 40.1208H31.9282C31.9282 40.2225 32.0106 40.3048 32.1122 40.3048V40.1208ZM32.1122 35.9074V35.7234C32.0106 35.7234 31.9282 35.8058 31.9282 35.9074H32.1122ZM33.0203 35.9074L33.1716 35.8026C33.1372 35.753 33.0807 35.7234 33.0203 35.7234V35.9074ZM34.7051 38.3397L34.5538 38.4445C34.5882 38.4941 34.6447 38.5237 34.7051 38.5237V38.3397ZM34.7255 38.3397V38.5237C34.8271 38.5237 34.9095 38.4413 34.9095 38.3397H34.7255ZM34.7255 35.9074V35.7234C34.6239 35.7234 34.5415 35.8058 34.5415 35.9074H34.7255ZM35.7942 35.9074H35.9782C35.9782 35.8058 35.8958 35.7234 35.7942 35.7234V35.9074ZM35.7942 40.1208V40.3048C35.8958 40.3048 35.9782 40.2225 35.9782 40.1208H35.7942ZM34.8949 40.1208L34.7434 40.2252C34.7777 40.2751 34.8344 40.3048 34.8949 40.3048V40.1208ZM33.2013 37.6623L33.3529 37.5579C33.3185 37.508 33.2619 37.4783 33.2013 37.4783V37.6623ZM33.1809 37.6623V37.4783C33.0793 37.4783 32.9969 37.5607 32.9969 37.6623H33.1809ZM33.1809 40.1208V40.3048C33.2825 40.3048 33.3649 40.2225 33.3649 40.1208H33.1809ZM32.2962 40.1208V35.9074H31.9282V40.1208H32.2962ZM32.1122 36.0914H33.0203V35.7234H32.1122V36.0914ZM32.869 36.0122L34.5538 38.4445L34.8563 38.2349L33.1716 35.8026L32.869 36.0122ZM34.7051 38.5237H34.7255V38.1557H34.7051V38.5237ZM34.9095 38.3397V35.9074H34.5415V38.3397H34.9095ZM34.7255 36.0914H35.7942V35.7234H34.7255V36.0914ZM35.6102 35.9074V40.1208H35.9782V35.9074H35.6102ZM35.7942 39.9368H34.8949V40.3048H35.7942V39.9368ZM35.0464 40.0165L33.3529 37.5579L33.0498 37.7667L34.7434 40.2252L35.0464 40.0165ZM33.2013 37.4783H33.1809V37.8463H33.2013V37.4783ZM32.9969 37.6623V40.1208H33.3649V37.6623H32.9969ZM33.1809 39.9368H32.1122V40.3048H33.1809V39.9368ZM36.4337 40.1208H36.2497C36.2497 40.2225 36.3321 40.3048 36.4337 40.3048V40.1208ZM36.4337 35.9074V35.7234C36.3321 35.7234 36.2497 35.8058 36.2497 35.9074H36.4337ZM37.5053 35.9074H37.6893C37.6893 35.8058 37.6069 35.7234 37.5053 35.7234V35.9074ZM37.5053 37.563H37.3213C37.3213 37.6646 37.4037 37.747 37.5053 37.747V37.563ZM39.1842 37.563V37.747C39.2859 37.747 39.3682 37.6646 39.3682 37.563H39.1842ZM39.1842 35.9074V35.7234C39.0826 35.7234 39.0002 35.8058 39.0002 35.9074H39.1842ZM40.2529 35.9074H40.4369C40.4369 35.8058 40.3546 35.7234 40.2529 35.7234V35.9074ZM40.2529 40.1208V40.3048C40.3546 40.3048 40.4369 40.2225 40.4369 40.1208H40.2529ZM39.1842 40.1208H39.0002C39.0002 40.2225 39.0826 40.3048 39.1842 40.3048V40.1208ZM39.1842 38.4244H39.3682C39.3682 38.3228 39.2859 38.2404 39.1842 38.2404V38.4244ZM37.5053 38.4244V38.2404C37.4037 38.2404 37.3213 38.3228 37.3213 38.4244H37.5053ZM37.5053 40.1208V40.3048C37.6069 40.3048 37.6893 40.2225 37.6893 40.1208H37.5053ZM36.6177 40.1208V35.9074H36.2497V40.1208H36.6177ZM36.4337 36.0914H37.5053V35.7234H36.4337V36.0914ZM37.3213 35.9074V37.563H37.6893V35.9074H37.3213ZM37.5053 37.747H39.1842V37.379H37.5053V37.747ZM39.3682 37.563V35.9074H39.0002V37.563H39.3682ZM39.1842 36.0914H40.2529V35.7234H39.1842V36.0914ZM40.0689 35.9074V40.1208H40.4369V35.9074H40.0689ZM40.2529 39.9368H39.1842V40.3048H40.2529V39.9368ZM39.3682 40.1208V38.4244H39.0002V40.1208H39.3682ZM39.1842 38.2404H37.5053V38.6084H39.1842V38.2404ZM37.3213 38.4244V40.1208H37.6893V38.4244H37.3213ZM37.5053 39.9368H36.4337V40.3048H37.5053V39.9368Z" fill="#83200E" mask="url(#path-8-outside-1_3295_18)"/>
</g>
</g>
<defs>
<filter id="filter0_d_3295_18" x="7.79118" y="7.21" width="34.2701" height="8.51004" filterUnits="userSpaceOnUse" color-interpolation-filters="sRGB">
<feFlood flood-opacity="0" result="BackgroundImageFix"/>
<feColorMatrix in="SourceAlpha" type="matrix" values="0 0 0 0 0 0 0 0 0 0 0 0 0 0 0 0 0 0 127 0" result="hardAlpha"/>
<feOffset/>
<feGaussianBlur stdDeviation="0.46"/>
<feComposite in2="hardAlpha" operator="out"/>
<feColorMatrix type="matrix" values="0 0 0 0 0 0 0 0 0 0 0 0 0 0 0 0 0 0 0.5 0"/>
<feBlend mode="normal" in2="BackgroundImageFix" result="effect1_dropShadow_3295_18"/>
<feBlend mode="normal" in="SourceGraphic" in2="effect1_dropShadow_3295_18" result="shape"/>
</filter>
<filter id="filter1_d_3295_18" x="6.33122" y="16.03" width="6.616" height="12.3274" filterUnits="userSpaceOnUse" color-interpolation-filters="sRGB">
<feFlood flood-opacity="0" result="BackgroundImageFix"/>
<feColorMatrix in="SourceAlpha" type="matrix" values="0 0 0 0 0 0 0 0 0 0 0 0 0 0 0 0 0 0 127 0" result="hardAlpha"/>
<feOffset/>
<feGaussianBlur stdDeviation="0.46"/>
<feComposite in2="hardAlpha" operator="out"/>
<feColorMatrix type="matrix" values="0 0 0 0 0 0 0 0 0 0 0 0 0 0 0 0 0 0 1 0"/>
<feBlend mode="normal" in2="BackgroundImageFix" result="effect1_dropShadow_3295_18"/>
<feBlend mode="normal" in="SourceGraphic" in2="effect1_dropShadow_3295_18" result="shape"/>
</filter>
<filter id="filter2_d_3295_18" x="14.2992" y="16.03" width="27.2221" height="12.3274" filterUnits="userSpaceOnUse" color-interpolation-filters="sRGB">
<feFlood flood-opacity="0" result="BackgroundImageFix"/>
<feColorMatrix in="SourceAlpha" type="matrix" values="0 0 0 0 0 0 0 0 0 0 0 0 0 0 0 0 0 0 127 0" result="hardAlpha"/>
<feOffset/>
<feGaussianBlur stdDeviation="0.46"/>
<feComposite in2="hardAlpha" operator="out"/>
<feColorMatrix type="matrix" values="0 0 0 0 0 0 0 0 0 0 0 0 0 0 0 0 0 0 1 0"/>
<feBlend mode="normal" in2="BackgroundImageFix" result="effect1_dropShadow_3295_18"/>
<feBlend mode="normal" in="SourceGraphic" in2="effect1_dropShadow_3295_18" result="shape"/>
</filter>
<filter id="filter3_d_3295_18" x="7.75375" y="32.5782" width="36.1792" height="11.2986" filterUnits="userSpaceOnUse" color-interpolation-filters="sRGB">
<feFlood flood-opacity="0" result="BackgroundImageFix"/>
<feColorMatrix in="SourceAlpha" type="matrix" values="0 0 0 0 0 0 0 0 0 0 0 0 0 0 0 0 0 0 127 0" result="hardAlpha"/>
<feOffset dx="0.92" dy="0.92"/>
<feGaussianBlur stdDeviation="1.38"/>
<feComposite in2="hardAlpha" operator="out"/>
<feColorMatrix type="matrix" values="0 0 0 0 0 0 0 0 0 0 0 0 0 0 0 0 0 0 0.6 0"/>
<feBlend mode="normal" in2="BackgroundImageFix" result="effect1_dropShadow_3295_18"/>
<feBlend mode="normal" in="SourceGraphic" in2="effect1_dropShadow_3295_18" result="shape"/>
</filter>
<linearGradient id="paint0_linear_3295_18" x1="40.2971" y1="8.53328" x2="21.9409" y2="33.7854" gradientUnits="userSpaceOnUse">
<stop stop-color="#DDA374"/>
<stop offset="0.473958" stop-color="#FCFBEE"/>
<stop offset="1" stop-color="#DEA779"/>
</linearGradient>
<linearGradient id="paint1_linear_3295_18" x1="40.2971" y1="8.53328" x2="21.9409" y2="33.7854" gradientUnits="userSpaceOnUse">
<stop stop-color="#F0EBAE"/>
<stop offset="0.473958" stop-color="#DFB45C"/>
<stop offset="1" stop-color="#FEE8A0"/>
</linearGradient>
<linearGradient id="paint2_linear_3295_18" x1="38.5675" y1="10.0175" x2="22.0632" y2="32.6426" gradientUnits="userSpaceOnUse">
<stop stop-color="#F0EBAE"/>
<stop offset="0.473958" stop-color="#DFB45C"/>
<stop offset="1" stop-color="#FEE8A0"/>
</linearGradient>
<linearGradient id="paint3_linear_3295_18" x1="24.9262" y1="2.55554" x2="24.9262" y2="43.4444" gradientUnits="userSpaceOnUse">
<stop stop-color="#EC1C1A"/>
<stop offset="0.47" stop-color="#E41B19"/>
<stop offset="1" stop-color="#D90B0F"/>
</linearGradient>
<linearGradient id="paint4_linear_3295_18" x1="24.9262" y1="31.51" x2="24.9262" y2="46.1658" gradientUnits="userSpaceOnUse">
<stop stop-color="#151316"/>
<stop offset="1" stop-color="#161314"/>
</linearGradient>
<linearGradient id="paint5_linear_3295_18" x1="24.9262" y1="31.51" x2="24.9262" y2="44.85" gradientUnits="userSpaceOnUse">
<stop stop-color="#F8D8B1"/>
<stop offset="1" stop-color="#E6A330"/>
</linearGradient>
<clipPath id="clip0_3295_18">
<rect width="46" height="46" fill="white" transform="translate(0.869995)"/>
</clipPath>
</defs>
</svg>
